name C:\Users\u0101727\Documents\MyRepositories\upper-imu-dc\Results\main_mocap_tracking\Case_10\FLX01_angularVelocities_groundFrame.mot
datacolumns 4
datarows 58
range 3.51000000 4.08000000
endheader 
time	radius_imu_x	radius_imu_y	radius_imu_z	
          3.51000000	         -0.02909424	         -0.24894126	         -0.15526721	
          3.52000000	         -0.01050794	         -0.18676734	         -0.14359515	
          3.53000000	          0.00765022	         -0.12351705	         -0.13013683	
          3.54000000	          0.02480667	         -0.06214851	         -0.11572786	
          3.55000000	          0.04039856	         -0.00593303	         -0.10135108	
          3.56000000	          0.05402009	          0.04267012	         -0.08787721	
          3.57000000	          0.06554161	          0.08290532	         -0.07582497	
          3.58000000	          0.07511059	          0.11581916	         -0.06526080	
          3.59000000	          0.08305065	          0.14365825	         -0.05585579	
          3.60000000	          0.08974412	          0.16904893	         -0.04704395	
          3.61000000	          0.09554796	          0.19426009	         -0.03822758	
          3.62000000	          0.10070504	          0.22044361	         -0.02900742	
          3.63000000	          0.10521318	          0.24679235	         -0.01940103	
          3.64000000	          0.10871078	          0.27000306	         -0.00996719	
          3.65000000	          0.11047564	          0.28451897	         -0.00176853	
          3.66000000	          0.10956022	          0.28357359	          0.00381393	
          3.67000000	          0.10502209	          0.26071986	          0.00534879	
          3.68000000	          0.09621793	          0.21161498	          0.00165895	
          3.69000000	          0.08314895	          0.13596979	         -0.00785298	
          3.70000000	          0.06678358	          0.03925649	         -0.02291430	
          3.71000000	          0.04913696	         -0.06701867	         -0.04230101	
          3.72000000	          0.03289698	         -0.16759545	         -0.06413505	
          3.73000000	          0.02069501	         -0.24768341	         -0.08647378	
          3.74000000	          0.01436719	         -0.29714215	         -0.10789971	
          3.75000000	          0.01448190	         -0.31304186	         -0.12788514	
          3.76000000	          0.02023732	         -0.30003181	         -0.14685745	
          3.77000000	          0.02971037	         -0.26867913	         -0.16599088	
          3.78000000	          0.04035652	         -0.23243665	         -0.18681211	
          3.79000000	          0.04962833	         -0.20407825	         -0.21072470	
          3.80000000	          0.05557157	         -0.19247108	         -0.23856628	
          3.81000000	          0.05725613	         -0.20051888	         -0.27032200	
          3.82000000	          0.05492990	         -0.22482197	         -0.30508406	
          3.83000000	          0.04986011	         -0.25705201	         -0.34126342	
          3.84000000	          0.04392449	         -0.28648721	         -0.37697176	
          3.85000000	          0.03908411	         -0.30288025	         -0.41045212	
          3.86000000	          0.03688714	         -0.29888225	         -0.44044685	
          3.87000000	          0.03812525	         -0.27148543	         -0.46642360	
          3.88000000	          0.04270899	         -0.22227745	         -0.48862060	
          3.89000000	          0.04976123	         -0.15664980	         -0.50792476	
          3.90000000	          0.05787419	         -0.08234226	         -0.52563906	
          3.91000000	          0.06544975	         -0.00775057	         -0.54320665	
          3.92000000	          0.07104025	          0.05966319	         -0.56194053	
          3.93000000	          0.07362401	          0.11463392	         -0.58279150	
          3.94000000	          0.07278011	          0.15488714	         -0.60618746	
          3.95000000	          0.06874965	          0.18134733	         -0.63198622	
          3.96000000	          0.06237593	          0.19767525	         -0.65957521	
          3.97000000	          0.05492860	          0.20919224	         -0.68810647	
          3.98000000	          0.04785105	          0.22148247	         -0.71679591	
          3.99000000	          0.04250019	          0.23909925	         -0.74518727	
          4.00000000	          0.03994255	          0.26472419	         -0.77329977	
          4.01000000	          0.04083717	          0.29890981	         -0.80162604	
          4.02000000	          0.04539859	          0.34031536	         -0.83099803	
          4.03000000	          0.05341277	          0.38621604	         -0.86237935	
          4.04000000	          0.06428550	          0.43307697	         -0.89665264	
          4.05000000	          0.07713598	          0.47713436	         -0.93443745	
          4.06000000	          0.09097610	          0.51507987	         -0.97592621	
          4.07000000	          0.10499951	          0.54491324	         -1.02072027	
          4.08000000	          0.11894664	          0.56682101	         -1.06769377	
